Coordinates
version=1
nRows=17
nColumns=24
inDegrees=yes

Units are S.I. units (second, meters, Newtons, ...)
Angles are in degrees.

endheader
time	pelvis_tilt	pelvis_list	pelvis_rotation	pelvis_tx	pelvis_ty	pelvis_tz	hip_flexion_r	hip_adduction_r	hip_rotation_r	knee_angle_r	ankle_angle_r	subtalar_angle_r	mtp_angle_r	hip_flexion_l	hip_adduction_l	hip_rotation_l	knee_angle_l	ankle_angle_l	subtalar_angle_l	mtp_angle_l	lumbar_extension	lumbar_bending	lumbar_rotation
      3.71000000	     -4.54773790	      8.48801006	      0.74324011	     -0.64827321	     -0.01732633	     -0.13380625	     31.36316386	     -9.71257216	     -2.20595300	    -68.92837334	    -12.34411371	      4.71002113	     24.76402110	      9.37026769	     18.25667221	      1.62191652	    -12.78896121	      4.44931499	     -2.27027466	    -11.46181028	      5.01943120	    -10.58810754	     -1.81139195
      3.71500000	     -4.42492120	      8.28920100	      0.87783206	     -0.64251107	     -0.01672635	     -0.13383431	     31.86627049	     -9.49337205	     -2.28874521	    -68.06722497	    -11.77716572	      4.65573356	     24.68956640	      8.50615203	     18.05288287	      1.98131269	    -12.40792542	      4.71648819	     -2.11645894	    -11.47234274	      4.84605770	    -10.39751603	     -1.98861564
      3.72000000	     -4.30062669	      8.08962391	      1.02133136	     -0.63675779	     -0.01617668	     -0.13387629	     32.33312033	     -9.27786562	     -2.38050815	    -67.13596315	    -11.21490337	      4.59556185	     24.53343942	      7.65451865	     17.84009480	      2.30524978	    -12.04423617	      4.99109318	     -1.92034312	    -11.43906267	      4.67037603	    -10.20617815	     -2.17758544
      3.72500000	     -4.19242066	      7.88171728	      1.16740386	     -0.63098956	     -0.01570522	     -0.13392030	     32.78633614	     -9.05550007	     -2.47896759	    -66.13882927	    -10.67708619	      4.53684428	     24.31068837	      6.83348615	     17.61210023	      2.59343709	    -11.69736466	      5.29368787	     -1.71087942	    -11.36205065	      4.51981667	    -10.00855276	     -2.36205095
      3.73000000	     -4.08768350	      7.67724451	      1.31428832	     -0.62525164	     -0.01529311	     -0.13398793	     33.21602835	     -8.83822247	     -2.57268518	    -65.07952689	    -10.14690662	      4.46996762	     24.01949241	      6.03580798	     17.38383824	      2.85800847	    -11.37282591	      5.58659029	     -1.48697976	    -11.26267033	      4.36792772	     -9.79977795	     -2.55488056
      3.73500000	     -3.98505818	      7.47550018	      1.46864488	     -0.61949610	     -0.01492257	     -0.13397723	     33.60789059	     -8.61531177	     -2.66790564	    -63.95108962	     -9.61841232	      4.40340931	     23.65190267	      5.25508815	     17.14780013	      3.11546582	    -11.07408473	      5.87066473	     -1.26767021	    -11.15210728	      4.22151468	     -9.62046711	     -2.74245260
      3.74000000	     -3.84842920	      7.28732524	      1.62336409	     -0.61376331	     -0.01460900	     -0.13399779	     33.94321667	     -8.42472318	     -2.78953371	    -62.78996741	     -9.06729718	      4.35158026	     23.12375527	      4.44147899	     16.92530268	      3.37933414	    -10.77410374	      6.16979468	     -1.06102427	    -11.02720774	      4.03364389	     -9.44121666	     -2.94468361
      3.74500000	     -3.75447169	      7.09573753	      1.76473465	     -0.60805157	     -0.01438421	     -0.13396299	     34.30362365	     -8.20906691	     -2.87504213	    -61.57640370	     -8.51689779	      4.34197403	     22.53817253	      3.69319559	     16.69418796	      3.66541054	    -10.49566308	      6.43833133	     -0.90965351	    -10.92525430	      3.88538959	     -9.25877663	     -3.10329732
      3.75000000	     -3.77780736	      6.89724886	      1.87525675	     -0.60235028	     -0.01432819	     -0.13391783	     34.77716522	     -7.95964504	     -2.88394707	    -60.27669564	     -8.10119945	      4.34140110	     22.28431655	      3.11805626	     16.46425143	      3.88761890	    -10.27811312	      6.70288687	     -0.84828729	    -10.86570043	      3.88087066	     -9.05977814	     -3.21069018
      3.75500000	     -3.62308174	      6.67249221	      2.03954983	     -0.59664756	     -0.01412897	     -0.13387671	     34.98620439	     -7.74244060	     -3.04472467	    -58.91754744	     -7.60365286	      4.37116601	     21.77522045	      2.32205768	     16.19882497	      4.18154628	    -10.02599248	      6.99194781	     -0.80706390	    -10.82902719	      3.65686214	     -8.86101445	     -3.48298755
      3.76000000	     -3.65816939	      6.49463601	      2.12580483	     -0.59096150	     -0.01420056	     -0.13375028	     35.42884949	     -7.50154230	     -3.02168821	    -57.52562833	     -7.22500292	      4.44199140	     21.51858036	      1.77807343	     15.98457594	      4.42843869	     -9.82955053	      7.25803539	     -0.79623958	    -10.79978828	      3.66823795	     -8.68228818	     -3.53637258
      3.76500000	     -3.47186698	      6.29285773	      2.26878893	     -0.58526971	     -0.01405918	     -0.13364421	     35.55052863	     -7.29634345	     -3.15235236	    -56.08094603	     -6.69265125	      4.61504216	     20.89775600	      0.95066685	     15.73594835	      4.80506575	     -9.57499087	      7.49695799	     -0.87051905	    -10.87753318	      3.40982228	     -8.50667639	     -3.80050013
      3.77000000	     -3.53033213	      6.10028258	      2.35268605	     -0.57966117	     -0.01424329	     -0.13347249	     35.96014001	     -7.04522487	     -3.14031167	    -54.58039174	     -6.33065809	      4.78422031	     20.69279986	      0.48298162	     15.50952160	      4.99962159	     -9.44639636	      7.76566072	     -0.94123054	    -10.87697836	      3.41947839	     -8.32499468	     -3.87642473
      3.77500000	     -3.37060638	      5.89906598	      2.49034146	     -0.57404143	     -0.01421614	     -0.13333531	     36.05393851	     -6.84344823	     -3.25773913	    -53.02144547	     -5.82718832	      5.08093277	     20.30705306	     -0.26856640	     15.26023377	      5.33311469	     -9.25686630	      8.01494272	     -1.05024676	    -10.99080268	      3.17387919	     -8.15384404	     -4.14449330
      3.78000000	     -3.32428243	      5.71221321	      2.58227531	     -0.56845380	     -0.01436768	     -0.13314597	     36.27008137	     -6.62065172	     -3.29146037	    -51.42923981	     -5.38194062	      5.41109232	     20.01285323	     -0.85347240	     15.03234151	      5.58493497	     -9.12437291	      8.27748670	     -1.18149227	    -11.10415269	      3.05488108	     -7.98473752	     -4.29083183
      3.78500000	     -3.29311865	      5.54063049	      2.67221492	     -0.56288759	     -0.01457053	     -0.13295764	     36.47451777	     -6.41393052	     -3.30442201	    -49.79196772	     -4.96869195	      5.77550228	     19.80843804	     -1.40523056	     14.81902295	      5.78548100	     -9.01418052	      8.54765569	     -1.26087984	    -11.19747251	      2.94939267	     -7.82620141	     -4.44113527
      3.79000000	     -3.34183236	      5.37584573	      2.73084664	     -0.55736220	     -0.01487671	     -0.13267336	     36.75415425	     -6.18608656	     -3.25942204	    -48.11613126	     -4.66648568	      6.15162463	     19.68677276	     -1.84550855	     14.60626725	      5.92381275	     -8.92758652	      8.81118320	     -1.29385161	    -11.22689440	      2.91872875	     -7.68832166	     -4.53799406
